<?xml version="1.0" standalone="yes"?>

<svg version="1.1" viewBox="0.0 0.0 911.8556430446195 638.0839895013123" fill="none" stroke="none" stroke-linecap="square" stroke-miterlimit="10" xmlns="http://www.w3.org/2000/svg" xmlns:xlink="http://www.w3.org/1999/xlink"><clipPath id="p.0"><path d="m0 0l911.85565 0l0 638.084l-911.85565 0l0 -638.084z" clip-rule="nonzero"></path></clipPath><g clip-path="url(#p.0)"><path fill="#000000" fill-opacity="0.0" d="m0 0l911.85565 0l0 638.084l-911.85565 0z" fill-rule="evenodd"></path><path fill="#cfe2f3" d="m101.31759 193.48032l0 0c0 -27.683823 22.442162 -50.12599 50.125984 -50.12599l0 0c13.294235 0 26.043976 5.281128 35.444427 14.681564c9.400436 9.400452 14.681549 22.150192 14.681549 35.444427l0 0c0 27.683823 -22.44217 50.125977 -50.125977 50.125977l0 0c-27.683823 0 -50.125984 -22.442154 -50.125984 -50.125977z" fill-rule="evenodd"></path><path stroke="#000000" stroke-width="1.0" stroke-linejoin="round" stroke-linecap="butt" d="m101.31759 193.48032l0 0c0 -27.683823 22.442162 -50.12599 50.125984 -50.12599l0 0c13.294235 0 26.043976 5.281128 35.444427 14.681564c9.400436 9.400452 14.681549 22.150192 14.681549 35.444427l0 0c0 27.683823 -22.44217 50.125977 -50.125977 50.125977l0 0c-27.683823 0 -50.125984 -22.442154 -50.125984 -50.125977z" fill-rule="evenodd"></path><path fill="#000000" d="m146.89474 193.97343l2.8125 -4.640625l2.53125 0l-4.140625 6.28125l4.28125 6.40625l-2.515625 0l-2.921875 -4.75l-2.9375 4.75l-2.515625 0l4.28125 -6.40625l-4.15625 -6.28125l2.515625 0l2.765625 4.640625z" fill-rule="nonzero"></path><path fill="#000000" d="m160.97678 206.16093q0 2.546875 -0.875 3.78125q-0.859375 1.234375 -2.703125 1.234375q-1.8125 0 -2.6875 -1.203125q-0.875 -1.21875 -0.90625 -3.609375l0 -1.9375q0 -2.5 0.859375 -3.71875q0.875 -1.21875 2.71875 -1.21875q1.84375 0 2.703125 1.171875q0.875 1.171875 0.890625 3.625l0 1.875zm-1.4375 -1.96875q0 -1.84375 -0.515625 -2.671875q-0.515625 -0.84375 -1.640625 -0.84375q-1.109375 0 -1.625 0.84375q-0.5 0.828125 -0.515625 2.5625l0 2.3125q0 1.84375 0.53125 2.71875q0.546875 0.875 1.625 0.875q1.078125 0 1.59375 -0.828125q0.515625 -0.828125 0.546875 -2.609375l0 -2.359375z" fill-rule="nonzero"></path><path fill="#cfe2f3" d="m101.31759 505.48032l0 0c0 -27.683807 22.442162 -50.125977 50.125984 -50.125977l0 0c13.294235 0 26.043976 5.2810974 35.444427 14.681549c9.400436 9.400452 14.681549 22.150177 14.681549 35.444427l0 0c0 27.683807 -22.44217 50.126007 -50.125977 50.126007l0 0c-27.683823 0 -50.125984 -22.4422 -50.125984 -50.126007z" fill-rule="evenodd"></path><path stroke="#000000" stroke-width="1.0" stroke-linejoin="round" stroke-linecap="butt" d="m101.31759 505.48032l0 0c0 -27.683807 22.442162 -50.125977 50.125984 -50.125977l0 0c13.294235 0 26.043976 5.2810974 35.444427 14.681549c9.400436 9.400452 14.681549 22.150177 14.681549 35.444427l0 0c0 27.683807 -22.44217 50.126007 -50.125977 50.126007l0 0c-27.683823 0 -50.125984 -22.4422 -50.125984 -50.126007z" fill-rule="evenodd"></path><path fill="#000000" d="m146.89474 505.97345l2.8125 -4.640625l2.53125 0l-4.140625 6.28125l4.28125 6.40625l-2.515625 0l-2.921875 -4.75l-2.9375 4.75l-2.515625 0l4.28125 -6.40625l-4.15625 -6.28125l2.515625 0l2.765625 4.640625z" fill-rule="nonzero"></path><path fill="#000000" d="m158.60178 523.0203l-1.453125 0l0 -9.640625l-2.921875 1.078125l0 -1.3125l4.140625 -1.5625l0.234375 0l0 11.4375z" fill-rule="nonzero"></path><path fill="#cfe2f3" d="m405.3176 505.48032l0 0c0 -27.683807 22.44217 -50.125977 50.125977 -50.125977l0 0c13.29422 0 26.043976 5.2810974 35.444427 14.681549c9.400452 9.400452 14.681549 22.150177 14.681549 35.444427l0 0c0 27.683807 -22.44217 50.126007 -50.125977 50.126007l0 0c-27.683807 0 -50.125977 -22.4422 -50.125977 -50.126007z" fill-rule="evenodd"></path><path stroke="#000000" stroke-width="1.0" stroke-linejoin="round" stroke-linecap="butt" d="m405.3176 505.48032l0 0c0 -27.683807 22.44217 -50.125977 50.125977 -50.125977l0 0c13.29422 0 26.043976 5.2810974 35.444427 14.681549c9.400452 9.400452 14.681549 22.150177 14.681549 35.444427l0 0c0 27.683807 -22.44217 50.126007 -50.125977 50.126007l0 0c-27.683807 0 -50.125977 -22.4422 -50.125977 -50.126007z" fill-rule="evenodd"></path><path fill="#000000" d="m456.57834 507.8172q0 2.890625 -1.328125 4.671875q-1.328125 1.765625 -3.59375 1.765625q-2.296875 0 -3.625 -1.46875l0 6.109375l-2.171875 0l0 -17.5625l1.984375 0l0.109375 1.40625q1.3125 -1.640625 3.671875 -1.640625q2.28125 0 3.609375 1.734375q1.34375 1.71875 1.34375 4.78125l0 0.203125zm-2.171875 -0.25q0 -2.140625 -0.921875 -3.375q-0.90625 -1.25 -2.5 -1.25q-1.96875 0 -2.953125 1.75l0 6.0625q0.96875 1.734375 2.96875 1.734375q1.5625 0 2.484375 -1.234375q0.921875 -1.25 0.921875 -3.6875z" fill-rule="nonzero"></path><path fill="#000000" d="m463.38693 523.0203l-1.453125 0l0 -9.640625l-2.921875 1.078125l0 -1.3125l4.140625 -1.5625l0.234375 0l0 11.4375z" fill-rule="nonzero"></path><path fill="#cfe2f3" d="m405.3176 193.48032l0 0c0 -27.683823 22.44217 -50.12599 50.125977 -50.12599l0 0c13.29422 0 26.043976 5.281128 35.444427 14.681564c9.400452 9.400452 14.681549 22.150192 14.681549 35.444427l0 0c0 27.683823 -22.44217 50.125977 -50.125977 50.125977l0 0c-27.683807 0 -50.125977 -22.442154 -50.125977 -50.125977z" fill-rule="evenodd"></path><path stroke="#000000" stroke-width="1.0" stroke-linejoin="round" stroke-linecap="butt" d="m405.3176 193.48032l0 0c0 -27.683823 22.44217 -50.12599 50.125977 -50.12599l0 0c13.29422 0 26.043976 5.281128 35.444427 14.681564c9.400452 9.400452 14.681549 22.150192 14.681549 35.444427l0 0c0 27.683823 -22.44217 50.125977 -50.125977 50.125977l0 0c-27.683807 0 -50.125977 -22.442154 -50.125977 -50.125977z" fill-rule="evenodd"></path><path fill="#000000" d="m456.57834 195.81718q0 2.890625 -1.328125 4.671875q-1.328125 1.765625 -3.59375 1.765625q-2.296875 0 -3.625 -1.46875l0 6.109375l-2.171875 0l0 -17.5625l1.984375 0l0.109375 1.40625q1.3125 -1.640625 3.671875 -1.640625q2.28125 0 3.609375 1.734375q1.34375 1.71875 1.34375 4.78125l0 0.203125zm-2.171875 -0.25q0 -2.140625 -0.921875 -3.375q-0.90625 -1.25 -2.5 -1.25q-1.96875 0 -2.953125 1.75l0 6.0625q0.96875 1.734375 2.96875 1.734375q1.5625 0 2.484375 -1.234375q0.921875 -1.25 0.921875 -3.6875z" fill-rule="nonzero"></path><path fill="#000000" d="m465.76193 206.16093q0 2.546875 -0.875 3.78125q-0.859375 1.234375 -2.703125 1.234375q-1.8125 0 -2.6875 -1.203125q-0.875 -1.21875 -0.90625 -3.609375l0 -1.9375q0 -2.5 0.859375 -3.71875q0.875 -1.21875 2.71875 -1.21875q1.84375 0 2.703125 1.171875q0.875 1.171875 0.890625 3.625l0 1.875zm-1.4375 -1.96875q0 -1.84375 -0.515625 -2.671875q-0.515625 -0.84375 -1.640625 -0.84375q-1.109375 0 -1.625 0.84375q-0.5 0.828125 -0.515625 2.5625l0 2.3125q0 1.84375 0.53125 2.71875q0.546875 0.875 1.625 0.875q1.078125 0 1.59375 -0.828125q0.515625 -0.828125 0.546875 -2.609375l0 -2.359375z" fill-rule="nonzero"></path><path fill="#cfe2f3" d="m693.31757 353.48032l0 0c0 -27.683807 22.4422 -50.125977 50.125977 -50.125977l0 0c13.2942505 0 26.044006 5.2810974 35.444458 14.681549c9.400452 9.400452 14.68158 22.150177 14.68158 35.444427l0 0c0 27.683807 -22.4422 50.125977 -50.126038 50.125977l0 0c-27.683777 0 -50.125977 -22.44217 -50.125977 -50.125977z" fill-rule="evenodd"></path><path stroke="#000000" stroke-width="1.0" stroke-linejoin="round" stroke-linecap="butt" d="m693.31757 353.48032l0 0c0 -27.683807 22.4422 -50.125977 50.125977 -50.125977l0 0c13.2942505 0 26.044006 5.2810974 35.444458 14.681549c9.400452 9.400452 14.68158 22.150177 14.68158 35.444427l0 0c0 27.683807 -22.4422 50.125977 -50.126038 50.125977l0 0c-27.683777 0 -50.125977 -22.44217 -50.125977 -50.125977z" fill-rule="evenodd"></path><path fill="#000000" d="m744.5783 355.8172q0 2.890625 -1.328125 4.671875q-1.328125 1.765625 -3.59375 1.765625q-2.296875 0 -3.625 -1.46875l0 6.109375l-2.171875 0l0 -17.5625l1.984375 0l0.109375 1.40625q1.3125 -1.640625 3.671875 -1.640625q2.28125 0 3.609375 1.734375q1.34375 1.71875 1.34375 4.78125l0 0.203125zm-2.171875 -0.25q0 -2.140625 -0.921875 -3.375q-0.90625 -1.25 -2.5 -1.25q-1.96875 0 -2.953125 1.75l0 6.0625q0.96875 1.734375 2.96875 1.734375q1.5625 0 2.484375 -1.234375q0.921875 -1.25 0.921875 -3.6875z" fill-rule="nonzero"></path><path fill="#000000" d="m754.09 371.02032l-7.453125 0l0 -1.046875l3.9375 -4.375q0.875 -0.984375 1.203125 -1.609375q0.328125 -0.625 0.328125 -1.28125q0 -0.890625 -0.546875 -1.453125q-0.53125 -0.578125 -1.421875 -0.578125q-1.078125 0 -1.6875 0.609375q-0.59375 0.609375 -0.59375 1.703125l-1.4375 0q0 -1.5625 1.0 -2.53125q1.015625 -0.96875 2.71875 -0.96875q1.578125 0 2.5 0.828125q0.921875 0.828125 0.921875 2.21875q0 1.671875 -2.140625 4.0l-3.046875 3.296875l5.71875 0l0 1.1875z" fill-rule="nonzero"></path><path fill="#000000" fill-opacity="0.0" d="m201.56955 193.48032l203.74805 0" fill-rule="evenodd"></path><path stroke="#000000" stroke-width="1.0" stroke-linejoin="round" stroke-linecap="butt" d="m201.56955 193.48032l203.74805 0" fill-rule="evenodd"></path><path fill="#000000" fill-opacity="0.0" d="m186.888 228.92474l233.10236 241.10236" fill-rule="evenodd"></path><path stroke="#000000" stroke-width="1.0" stroke-linejoin="round" stroke-linecap="butt" d="m186.888 228.92474l233.10236 241.10236" fill-rule="evenodd"></path><path fill="#000000" fill-opacity="0.0" d="m186.89679 470.0271l233.10236 -241.10236" fill-rule="evenodd"></path><path stroke="#000000" stroke-width="1.0" stroke-linejoin="round" stroke-linecap="butt" d="m186.89679 470.0271l233.10236 -241.10236" fill-rule="evenodd"></path><path fill="#000000" fill-opacity="0.0" d="m201.56955 505.48032l203.74805 0" fill-rule="evenodd"></path><path stroke="#000000" stroke-width="1.0" stroke-linejoin="round" stroke-linecap="butt" d="m201.56955 505.48032l203.74805 0" fill-rule="evenodd"></path><path fill="#000000" fill-opacity="0.0" d="m505.56955 505.48032l202.4252 -116.566925" fill-rule="evenodd"></path><path stroke="#000000" stroke-width="1.0" stroke-linejoin="round" stroke-linecap="butt" d="m505.56955 505.48032l202.4252 -116.566925" fill-rule="evenodd"></path><path fill="#000000" fill-opacity="0.0" d="m505.57394 193.46896l202.4252 124.566925" fill-rule="evenodd"></path><path stroke="#000000" stroke-width="1.0" stroke-linejoin="round" stroke-linecap="butt" d="m505.57394 193.46896l202.4252 124.566925" fill-rule="evenodd"></path><path fill="#000000" fill-opacity="0.0" d="m218.68242 146.75328l100.25197 0l0 30.708664l-100.25197 0z" fill-rule="evenodd"></path><path fill="#000000" d="m262.11115 175.80891l2.4375 -9.703125l2.15625 0l-3.6875 12.6875l-1.75 0l-3.09375 -9.609375l-3.0000153 9.609375l-1.75 0l-3.6875 -12.6875l2.15625 0l2.5 9.5l2.9531403 -9.5l1.75 0l3.015625 9.703125z" fill-rule="nonzero"></path><path fill="#000000" d="m275.34943 182.93391q0 2.546875 -0.875 3.78125q-0.859375 1.234375 -2.703125 1.234375q-1.8125 0 -2.6875 -1.203125q-0.875 -1.21875 -0.90625 -3.609375l0 -1.9375q0 -2.5 0.859375 -3.71875q0.875 -1.21875 2.71875 -1.21875q1.84375 0 2.703125 1.171875q0.875 1.171875 0.890625 3.625l0 1.875zm-1.4375 -1.96875q0 -1.84375 -0.515625 -2.671875q-0.515625 -0.84375 -1.640625 -0.84375q-1.109375 0 -1.625 0.84375q-0.5 0.828125 -0.515625 2.5625l0 2.3125q0 1.84375 0.53125 2.71875q0.546875 0.875 1.625 0.875q1.078125 0 1.59375 -0.828125q0.515625 -0.828125 0.546875 -2.609375l0 -2.359375zm3.390625 9.09375l-0.8125 -0.5625q0.734375 -1.015625 0.765625 -2.109375l0 -1.3125l1.40625 0l0 1.140625q0 0.796875 -0.390625 1.578125q-0.375 0.796875 -0.96875 1.265625zm10.171875 -7.125q0 2.546875 -0.875 3.78125q-0.859375 1.234375 -2.703125 1.234375q-1.8125 0 -2.6875 -1.203125q-0.875 -1.21875 -0.90625 -3.609375l0 -1.9375q0 -2.5 0.859375 -3.71875q0.875 -1.21875 2.71875 -1.21875q1.84375 0 2.703125 1.171875q0.875 1.171875 0.890625 3.625l0 1.875zm-1.4375 -1.96875q0 -1.84375 -0.515625 -2.671875q-0.515625 -0.84375 -1.640625 -0.84375q-1.109375 0 -1.625 0.84375q-0.5 0.828125 -0.515625 2.5625l0 2.3125q0 1.84375 0.53125 2.71875q0.546875 0.875 1.625 0.875q1.078125 0 1.59375 -0.828125q0.515625 -0.828125 0.546875 -2.609375l0 -2.359375z" fill-rule="nonzero"></path><path fill="#000000" fill-opacity="0.0" d="m218.68242 394.7533l100.25197 0l0 30.708649l-100.25197 0z" fill-rule="evenodd"></path><path fill="#000000" d="m262.11115 423.8089l2.4375 -9.703125l2.15625 0l-3.6875 12.6875l-1.75 0l-3.09375 -9.609375l-3.0000153 9.609375l-1.75 0l-3.6875 -12.6875l2.15625 0l2.5 9.5l2.9531403 -9.5l1.75 0l3.015625 9.703125z" fill-rule="nonzero"></path><path fill="#000000" d="m272.97443 435.79327l-1.453125 0l0 -9.640625l-2.921875 1.078125l0 -1.3125l4.140625 -1.5625l0.234375 0l0 11.4375zm4.328125 2.265625l-0.8125 -0.5625q0.734375 -1.015625 0.765625 -2.109375l0 -1.3125l1.40625 0l0 1.140625q0 0.796875 -0.390625 1.578125q-0.375 0.796875 -0.96875 1.265625zm10.171875 -7.125q0 2.546875 -0.875 3.78125q-0.859375 1.234375 -2.703125 1.234375q-1.8125 0 -2.6875 -1.203125q-0.875 -1.21875 -0.90625 -3.609375l0 -1.9375q0 -2.5 0.859375 -3.71875q0.875 -1.21875 2.71875 -1.21875q1.84375 0 2.703125 1.171875q0.875 1.171875 0.890625 3.625l0 1.875zm-1.4375 -1.96875q0 -1.84375 -0.515625 -2.671875q-0.515625 -0.84375 -1.640625 -0.84375q-1.109375 0 -1.625 0.84375q-0.5 0.828125 -0.515625 2.5625l0 2.3125q0 1.84375 0.53125 2.71875q0.546875 0.875 1.625 0.875q1.078125 0 1.59375 -0.828125q0.515625 -0.828125 0.546875 -2.609375l0 -2.359375z" fill-rule="nonzero"></path><path fill="#000000" fill-opacity="0.0" d="m218.68242 250.75328l100.25197 0l0 30.708664l-100.25197 0z" fill-rule="evenodd"></path><path fill="#000000" d="m262.11115 279.8089l2.4375 -9.703125l2.15625 0l-3.6875 12.6875l-1.75 0l-3.09375 -9.609375l-3.0000153 9.609375l-1.75 0l-3.6875 -12.6875l2.15625 0l2.5 9.5l2.9531403 -9.5l1.75 0l3.015625 9.703125z" fill-rule="nonzero"></path><path fill="#000000" d="m275.34943 286.9339q0 2.546875 -0.875 3.78125q-0.859375 1.234375 -2.703125 1.234375q-1.8125 0 -2.6875 -1.203125q-0.875 -1.21875 -0.90625 -3.609375l0 -1.9375q0 -2.5 0.859375 -3.71875q0.875 -1.21875 2.71875 -1.21875q1.84375 0 2.703125 1.171875q0.875 1.171875 0.890625 3.625l0 1.875zm-1.4375 -1.96875q0 -1.84375 -0.515625 -2.671875q-0.515625 -0.84375 -1.640625 -0.84375q-1.109375 0 -1.625 0.84375q-0.5 0.828125 -0.515625 2.5625l0 2.3125q0 1.84375 0.53125 2.71875q0.546875 0.875 1.625 0.875q1.078125 0 1.59375 -0.828125q0.515625 -0.828125 0.546875 -2.609375l0 -2.359375zm3.390625 9.09375l-0.8125 -0.5625q0.734375 -1.015625 0.765625 -2.109375l0 -1.3125l1.40625 0l0 1.140625q0 0.796875 -0.390625 1.578125q-0.375 0.796875 -0.96875 1.265625zm7.796875 -2.265625l-1.453125 0l0 -9.640625l-2.921875 1.078125l0 -1.3125l4.140625 -1.5625l0.234375 0l0 11.4375z" fill-rule="nonzero"></path><path fill="#000000" fill-opacity="0.0" d="m218.68242 490.7533l100.25197 0l0 30.708618l-100.25197 0z" fill-rule="evenodd"></path><path fill="#000000" d="m262.11115 519.8089l2.4375 -9.703125l2.15625 0l-3.6875 12.6875l-1.75 0l-3.09375 -9.609375l-3.0000153 9.609375l-1.75 0l-3.6875 -12.6875l2.15625 0l2.5 9.5l2.9531403 -9.5l1.75 0l3.015625 9.703125z" fill-rule="nonzero"></path><path fill="#000000" d="m272.97443 531.7933l-1.453125 0l0 -9.640625l-2.921875 1.078125l0 -1.3125l4.140625 -1.5625l0.234375 0l0 11.4375zm4.328125 2.265625l-0.8125 -0.5625q0.734375 -1.015625 0.765625 -2.109375l0 -1.3125l1.40625 0l0 1.140625q0 0.796875 -0.390625 1.578125q-0.375 0.796875 -0.96875 1.265625zm7.796875 -2.265625l-1.453125 0l0 -9.640625l-2.921875 1.078125l0 -1.3125l4.140625 -1.5625l0.234375 0l0 11.4375z" fill-rule="nonzero"></path><path fill="#000000" fill-opacity="0.0" d="m93.77165 44.1916l124.91339 0l0 63.59055l-124.91339 0z" fill-rule="evenodd"></path><path fill="#000000" d="m133.46663 76.231606l-2.25 0l0 -17.062504l2.25 0l0 17.062504zm5.8242188 -12.687504l0.078125 1.5937538q1.453125 -1.8281288 3.796875 -1.8281288q4.015625 0 4.046875 4.546879l0 8.375l-2.15625 0l0 -8.390625q-0.015625 -1.375 -0.640625 -2.03125q-0.609375 -0.65625 -1.90625 -0.65625q-1.0625 0 -1.859375 0.5625q-0.796875 0.5625 -1.234375 1.484375l0 9.03125l-2.171875 0l0 -12.687504l2.046875 0zm21.914062 6.484379q0 2.890625 -1.328125 4.671875q-1.328125 1.765625 -3.59375 1.765625q-2.296875 0 -3.625 -1.46875l0 6.109375l-2.171875 0l0 -17.562504l1.984375 0l0.109375 1.4062538q1.3125 -1.6406288 3.671875 -1.6406288q2.28125 0 3.609375 1.7343788q1.34375 1.71875 1.34375 4.78125l0 0.203125zm-2.171875 -0.25q0 -2.140625 -0.921875 -3.375q-0.90625 -1.25 -2.5 -1.25q-1.96875 0 -2.953125 1.75l0 6.0625q0.96875 1.734375 2.96875 1.734375q1.5625 0 2.484375 -1.234375q0.921875 -1.25 0.921875 -3.6875zm12.746094 5.203125q-1.265625 1.484375 -3.71875 1.484375q-2.015625 0 -3.078125 -1.171875q-1.0625 -1.1875 -1.078125 -3.5l0 -8.250004l2.171875 0l0 8.203129q0 2.875 2.34375 2.875q2.484375 0 3.296875 -1.84375l0 -9.234379l2.171875 0l0 12.687504l-2.0625 0l-0.046875 -1.25zm8.339844 -14.500004l0 3.0625l2.375 0l0 1.6875038l-2.375 0l0 7.859375q0 0.765625 0.3125 1.140625q0.328125 0.375 1.09375 0.375q0.375 0 1.03125 -0.140625l0 1.765625q-0.859375 0.234375 -1.671875 0.234375q-1.453125 0 -2.1875 -0.875q-0.734375 -0.890625 -0.734375 -2.5l0 -7.859375l-2.3125 0l0 -1.6875038l2.3125 0l0 -3.0625l2.15625 0z" fill-rule="nonzero"></path><path fill="#000000" fill-opacity="0.0" d="m389.77167 44.1916l124.91339 0l0 63.59055l-124.91339 0z" fill-rule="evenodd"></path><path fill="#000000" d="m429.3416 76.231606l-2.265625 0l0 -7.890625l-8.59375 0l0 7.890625l-2.25 0l0 -17.062504l2.25 0l0 7.328129l8.59375 0l0 -7.328129l2.265625 0l0 17.062504zm6.015625 0l-2.171875 0l0 -12.687504l2.171875 0l0 12.687504zm-2.34375 -16.046879q0 -0.53125 0.3125 -0.890625q0.328125 -0.359375 0.953125 -0.359375q0.640625 0 0.96875 0.359375q0.328125 0.359375 0.328125 0.890625q0 0.53125 -0.328125 0.890625q-0.328125 0.34375 -0.96875 0.34375q-0.625 0 -0.953125 -0.34375q-0.3125 -0.359375 -0.3125 -0.890625zm5.2773438 9.593754q0 -2.90625 1.375 -4.6875q1.390625 -1.7812538 3.640625 -1.7812538q2.21875 0 3.515625 1.5312538l0 -6.609379l2.171875 0l0 18.000004l-1.984375 0l-0.109375 -1.359375q-1.296875 1.59375 -3.625 1.59375q-2.203125 0 -3.59375 -1.796875q-1.390625 -1.8125 -1.390625 -4.71875l0 -0.171875zm2.171875 0.25q0 2.15625 0.890625 3.375q0.890625 1.21875 2.46875 1.21875q2.0625 0 3.0 -1.84375l0 -5.828125q-0.96875 -1.796875 -2.984375 -1.796875q-1.59375 0 -2.484375 1.234375q-0.890625 1.234375 -0.890625 3.640625zm11.363281 -0.25q0 -2.90625 1.375 -4.6875q1.3906555 -1.7812538 3.6406555 -1.7812538q2.21875 0 3.515625 1.5312538l0 -6.609379l2.171875 0l0 18.000004l-1.984375 0l-0.109375 -1.359375q-1.296875 1.59375 -3.625 1.59375q-2.203125 0 -3.5937805 -1.796875q-1.390625 -1.8125 -1.390625 -4.71875l0 -0.171875zm2.1719055 0.25q0 2.15625 0.890625 3.375q0.890625 1.21875 2.46875 1.21875q2.0625 0 3.0 -1.84375l0 -5.828125q-0.96875 -1.796875 -2.984375 -1.796875q-1.59375 0 -2.484375 1.234375q-0.890625 1.234375 -0.890625 3.640625zm17.160156 6.4375q-2.578125 0 -4.203125 -1.6875q-1.609375 -1.703125 -1.609375 -4.53125l0 -0.40625q0 -1.890625 0.71875 -3.359375q0.71875 -1.484375 2.015625 -2.328125q1.296875 -0.8437538 2.8125 -0.8437538q2.46875 0 3.828125 1.6406288q1.375 1.625 1.375 4.65625l0 0.90625l-8.578125 0q0.046875 1.875 1.09375 3.03125q1.046875 1.15625 2.65625 1.15625q1.15625 0 1.953125 -0.46875q0.796875 -0.46875 1.390625 -1.25l1.328125 1.03125q-1.59375 2.453125 -4.78125 2.453125zm-0.265625 -11.375q-1.3125 0 -2.203125 0.96875q-0.890625 0.953125 -1.109375 2.671875l6.359375 0l0 -0.171875q-0.09375 -1.640625 -0.890625 -2.546875q-0.796875 -0.921875 -2.15625 -0.921875zm9.761719 -1.5468788l0.078125 1.5937538q1.453125 -1.8281288 3.796875 -1.8281288q4.015625 0 4.046875 4.546879l0 8.375l-2.15625 0l0 -8.390625q-0.015625 -1.375 -0.640625 -2.03125q-0.609375 -0.65625 -1.90625 -0.65625q-1.0625 0 -1.859375 0.5625q-0.796875 0.5625 -1.234375 1.484375l0 9.03125l-2.171875 0l0 -12.687504l2.046875 0z" fill-rule="nonzero"></path><path fill="#000000" fill-opacity="0.0" d="m685.77167 44.1916l124.91339 0l0 63.59055l-124.91339 0z" fill-rule="evenodd"></path><path fill="#000000" d="m727.285 68.24723q0 2.515625 -0.84375 4.390625q-0.84375 1.859375 -2.390625 2.84375q-1.546875 0.984375 -3.609375 0.984375q-2.015625 0 -3.578125 -0.984375q-1.5625 -1.0 -2.421875 -2.828125q-0.859375 -1.84375 -0.875 -4.25l0 -1.234375q0 -2.453125 0.84375 -4.343754q0.859375 -1.890625 2.421875 -2.890625q1.5625 -1.0 3.578125 -1.0q2.0625 0 3.625 1.0q1.5625 0.984375 2.40625 2.859375q0.84375 1.8750038 0.84375 4.375004l0 1.078125zm-2.234375 -1.09375q0 -3.046875 -1.21875 -4.656254q-1.21875 -1.625 -3.421875 -1.625q-2.125 0 -3.359375 1.625q-1.21875 1.6093788 -1.25 4.500004l0 1.25q0 2.9375 1.234375 4.625q1.234375 1.6875 3.40625 1.6875q2.171875 0 3.359375 -1.59375q1.203125 -1.59375 1.25 -4.546875l0 -1.265625zm13.09375 7.828125q-1.265625 1.484375 -3.71875 1.484375q-2.015625 0 -3.078125 -1.171875q-1.0625 -1.1875 -1.078125 -3.5l0 -8.250004l2.171875 0l0 8.203129q0 2.875 2.34375 2.875q2.484375 0 3.296875 -1.84375l0 -9.234379l2.171875 0l0 12.687504l-2.0625 0l-0.046875 -1.25zm8.339844 -14.500004l0 3.0625l2.375 0l0 1.6875038l-2.375 0l0 7.859375q0 0.765625 0.3125 1.140625q0.328125 0.375 1.09375 0.375q0.375 0 1.03125 -0.140625l0 1.765625q-0.859375 0.234375 -1.671875 0.234375q-1.453125 0 -2.1875 -0.875q-0.734375 -0.890625 -0.734375 -2.5l0 -7.859375l-2.3125 0l0 -1.6875038l2.3125 0l0 -3.0625l2.15625 0zm15.621094 9.546879q0 2.890625 -1.328125 4.671875q-1.328125 1.765625 -3.59375 1.765625q-2.296875 0 -3.625 -1.46875l0 6.109375l-2.171875 0l0 -17.562504l1.984375 0l0.109375 1.4062538q1.3125 -1.6406288 3.671875 -1.6406288q2.28125 0 3.609375 1.7343788q1.34375 1.71875 1.34375 4.78125l0 0.203125zm-2.171875 -0.25q0 -2.140625 -0.921875 -3.375q-0.90625 -1.25 -2.5 -1.25q-1.96875 0 -2.953125 1.75l0 6.0625q0.96875 1.734375 2.96875 1.734375q1.5625 0 2.484375 -1.234375q0.921875 -1.25 0.921875 -3.6875zm12.746094 5.203125q-1.265625 1.484375 -3.71875 1.484375q-2.015625 0 -3.078125 -1.171875q-1.0625 -1.1875 -1.078125 -3.5l0 -8.250004l2.171875 0l0 8.203129q0 2.875 2.34375 2.875q2.484375 0 3.296875 -1.84375l0 -9.234379l2.171875 0l0 12.687504l-2.0625 0l-0.046875 -1.25zm8.339844 -14.500004l0 3.0625l2.375 0l0 1.6875038l-2.375 0l0 7.859375q0 0.765625 0.3125 1.140625q0.328125 0.375 1.09375 0.375q0.375 0 1.03125 -0.140625l0 1.765625q-0.859375 0.234375 -1.671875 0.234375q-1.453125 0 -2.1875 -0.875q-0.734375 -0.890625 -0.734375 -2.5l0 -7.859375l-2.3125 0l0 -1.6875038l2.3125 0l0 -3.0625l2.15625 0z" fill-rule="nonzero"></path><path fill="#000000" fill-opacity="0.0" d="m303.951 20.48022l0 600.34644" fill-rule="evenodd"></path><path stroke="#000000" stroke-width="1.0" stroke-linejoin="round" stroke-linecap="butt" stroke-dasharray="1.0,3.0" d="m303.951 20.48022l0 600.34644" fill-rule="evenodd"></path><path fill="#000000" fill-opacity="0.0" d="m605.7953 20.480314l0 600.3465" fill-rule="evenodd"></path><path stroke="#000000" stroke-width="1.0" stroke-linejoin="round" stroke-linecap="butt" stroke-dasharray="1.0,3.0" d="m605.7953 20.480314l0 600.3465" fill-rule="evenodd"></path></g></svg>

